<svg width="22" height="40" viewBox="0 0 22 40" fill="none" xmlns="http://www.w3.org/2000/svg">
<circle cx="20" cy="2" r="2" transform="rotate(90 20 2)" fill="#E63946" fill-opacity="0.1"/>
<circle cx="11" cy="2" r="2" transform="rotate(90 11 2)" fill="#E63946" fill-opacity="0.1"/>
<circle cx="2" cy="2" r="2" transform="rotate(90 2 2)" fill="#E63946" fill-opacity="0.1"/>
<circle cx="20" cy="11" r="2" transform="rotate(90 20 11)" fill="#E63946" fill-opacity="0.1"/>
<circle cx="11" cy="11" r="2" transform="rotate(90 11 11)" fill="#E63946" fill-opacity="0.1"/>
<circle cx="2" cy="11" r="2" transform="rotate(90 2 11)" fill="#E63946" fill-opacity="0.1"/>
<circle cx="20" cy="20" r="2" transform="rotate(90 20 20)" fill="#E63946" fill-opacity="0.1"/>
<circle cx="11" cy="20" r="2" transform="rotate(90 11 20)" fill="#E63946" fill-opacity="0.1"/>
<circle cx="2" cy="20" r="2" transform="rotate(90 2 20)" fill="#E63946" fill-opacity="0.1"/>
<circle cx="20" cy="29" r="2" transform="rotate(90 20 29)" fill="#E63946" fill-opacity="0.1"/>
<circle cx="11" cy="29" r="2" transform="rotate(90 11 29)" fill="#E63946" fill-opacity="0.1"/>
<circle cx="2" cy="29" r="2" transform="rotate(90 2 29)" fill="#E63946" fill-opacity="0.1"/>
<circle cx="20" cy="38" r="2" transform="rotate(90 20 38)" fill="#E63946" fill-opacity="0.1"/>
<circle cx="11" cy="38" r="2" transform="rotate(90 11 38)" fill="#E63946" fill-opacity="0.1"/>
<circle cx="2" cy="38" r="2" transform="rotate(90 2 38)" fill="#E63946" fill-opacity="0.1"/>
</svg>
