<svg width="352" height="87" viewBox="0 0 352 87" fill="none" xmlns="http://www.w3.org/2000/svg">
<path d="M120.181 49.331C122.019 49.331 123.358 49.02 124.196 48.3981C125.034 47.7762 125.453 46.8974 125.453 45.7617C125.453 45.0857 125.305 44.5043 125.007 44.0176C124.737 43.5309 124.331 43.0982 123.791 42.7197C123.277 42.3141 122.641 41.949 121.884 41.6245C121.127 41.273 120.262 40.935 119.288 40.6105C118.315 40.259 117.368 39.8804 116.449 39.4748C115.557 39.0422 114.759 38.5149 114.056 37.893C113.38 37.2711 112.826 36.5275 112.393 35.6622C111.987 34.7969 111.785 33.7558 111.785 32.539C111.785 29.9972 112.663 28.0098 114.421 26.5766C116.179 25.1165 118.572 24.3864 121.6 24.3864C123.358 24.3864 124.913 24.5892 126.265 24.9948C127.644 25.3734 128.725 25.7925 129.51 26.2522L127.928 30.3893C127.008 29.8756 125.994 29.4835 124.886 29.2131C123.804 28.9427 122.682 28.8075 121.519 28.8075C120.14 28.8075 119.058 29.0914 118.274 29.6592C117.517 30.2271 117.139 31.0248 117.139 32.0523C117.139 32.6742 117.26 33.215 117.504 33.6747C117.774 34.1074 118.139 34.4994 118.599 34.851C119.086 35.2025 119.64 35.527 120.262 35.8244C120.911 36.1219 121.614 36.4058 122.371 36.6762C123.696 37.1629 124.872 37.6631 125.9 38.1769C126.954 38.6636 127.833 39.2585 128.536 39.9616C129.266 40.6376 129.82 41.4488 130.199 42.3952C130.578 43.3146 130.767 44.4367 130.767 45.7617C130.767 48.3035 129.861 50.2774 128.049 51.6835C126.265 53.0626 123.642 53.7521 120.181 53.7521C119.018 53.7521 117.95 53.671 116.976 53.5087C116.03 53.3735 115.178 53.1978 114.421 52.9814C113.691 52.7651 113.056 52.5488 112.515 52.3325C111.974 52.0891 111.541 51.8728 111.217 51.6835L112.718 47.5058C113.448 47.9114 114.435 48.317 115.678 48.7226C116.922 49.1282 118.423 49.331 120.181 49.331ZM131.215 42.6385C131.215 40.7728 131.485 39.1368 132.026 37.7307C132.594 36.3247 133.337 35.1619 134.257 34.2426C135.176 33.2961 136.231 32.5931 137.42 32.1334C138.61 31.6467 139.827 31.4033 141.071 31.4033C143.991 31.4033 146.263 32.3092 147.885 34.1209C149.534 35.9326 150.359 38.6366 150.359 42.2329C150.359 42.5033 150.346 42.8143 150.319 43.1658C150.319 43.4903 150.305 43.7878 150.278 44.0582H136.285C136.42 45.7617 137.015 47.0867 138.069 48.0331C139.151 48.9524 140.706 49.4121 142.734 49.4121C143.924 49.4121 145.005 49.304 145.979 49.0876C146.979 48.8713 147.763 48.6415 148.331 48.3981L148.98 52.4136C148.71 52.5488 148.331 52.6975 147.844 52.8598C147.385 52.995 146.844 53.1166 146.222 53.2248C145.627 53.36 144.978 53.4682 144.275 53.5493C143.572 53.6304 142.855 53.671 142.125 53.671C140.26 53.671 138.637 53.4006 137.258 52.8598C135.879 52.2919 134.743 51.5213 133.851 50.5478C132.959 49.5473 132.296 48.3846 131.864 47.0596C131.431 45.7076 131.215 44.2339 131.215 42.6385ZM145.451 40.4483C145.451 39.7723 145.357 39.1368 145.167 38.542C144.978 37.92 144.694 37.3927 144.316 36.9601C143.964 36.5004 143.518 36.1489 142.977 35.9055C142.463 35.6351 141.841 35.4999 141.111 35.4999C140.354 35.4999 139.692 35.6486 139.124 35.9461C138.556 36.2165 138.069 36.5815 137.664 37.0412C137.285 37.5009 136.988 38.0282 136.771 38.6231C136.555 39.218 136.406 39.8264 136.325 40.4483H145.451ZM160.389 49.696C161.904 49.696 163.053 49.6149 163.837 49.4527V44.0176C163.566 43.9365 163.174 43.8554 162.661 43.7742C162.147 43.6931 161.579 43.6526 160.957 43.6526C160.416 43.6526 159.862 43.6931 159.294 43.7742C158.753 43.8554 158.253 44.0041 157.793 44.2204C157.361 44.4367 157.009 44.7477 156.739 45.1533C156.468 45.5319 156.333 46.0186 156.333 46.6135C156.333 47.7762 156.698 48.5874 157.428 49.0471C158.158 49.4797 159.145 49.696 160.389 49.696ZM159.984 31.4033C161.606 31.4033 162.972 31.6061 164.08 32.0117C165.189 32.4173 166.068 32.9852 166.717 33.7153C167.393 34.4454 167.866 35.3377 168.136 36.3923C168.434 37.4198 168.582 38.5555 168.582 39.7993V52.657C167.825 52.8192 166.676 53.0085 165.135 53.2248C163.621 53.4682 161.904 53.5898 159.984 53.5898C158.713 53.5898 157.55 53.4682 156.495 53.2248C155.441 52.9814 154.535 52.5894 153.778 52.0485C153.048 51.5077 152.466 50.8047 152.034 49.9394C151.628 49.0741 151.425 48.006 151.425 46.7351C151.425 45.5183 151.655 44.4908 152.115 43.6526C152.602 42.8143 153.251 42.1383 154.062 41.6245C154.873 41.0837 155.806 40.7052 156.861 40.4888C157.942 40.2455 159.064 40.1238 160.227 40.1238C160.768 40.1238 161.336 40.1644 161.931 40.2455C162.525 40.2996 163.161 40.4077 163.837 40.57V39.7588C163.837 39.1909 163.769 38.6501 163.634 38.1363C163.499 37.6226 163.256 37.1764 162.904 36.7979C162.58 36.3923 162.133 36.0813 161.566 35.865C161.025 35.6486 160.335 35.5405 159.497 35.5405C158.361 35.5405 157.32 35.6216 156.374 35.7838C155.427 35.9461 154.657 36.1354 154.062 36.3517L153.453 32.3768C154.075 32.1605 154.981 31.9441 156.171 31.7278C157.361 31.5115 158.632 31.4033 159.984 31.4033ZM184.043 36.3517C183.638 36.2165 183.07 36.0813 182.34 35.9461C181.637 35.7838 180.812 35.7027 179.866 35.7027C179.325 35.7027 178.743 35.7568 178.121 35.865C177.527 35.9731 177.107 36.0678 176.864 36.1489V53.1437H171.956V32.9446C172.903 32.5931 174.079 32.2686 175.485 31.9712C176.918 31.6467 178.5 31.4844 180.231 31.4844C180.555 31.4844 180.934 31.5115 181.366 31.5656C181.799 31.5926 182.232 31.6467 182.664 31.7278C183.097 31.7819 183.516 31.863 183.922 31.9712C184.327 32.0523 184.652 32.1334 184.895 32.2145L184.043 36.3517ZM184.502 42.5574C184.502 40.9891 184.746 39.5289 185.232 38.1769C185.719 36.7979 186.409 35.6081 187.301 34.6076C188.22 33.6071 189.329 32.8229 190.627 32.2551C191.925 31.6873 193.385 31.4033 195.008 31.4033C197.009 31.4033 198.901 31.7684 200.686 32.4985L199.631 36.5139C199.064 36.2706 198.415 36.0678 197.685 35.9055C196.981 35.7433 196.224 35.6622 195.413 35.6622C193.493 35.6622 192.033 36.2706 191.033 37.4874C190.032 38.6772 189.532 40.3672 189.532 42.5574C189.532 44.6666 190.005 46.3431 190.951 47.5869C191.898 48.8037 193.493 49.4121 195.738 49.4121C196.576 49.4121 197.401 49.331 198.212 49.1688C199.023 49.0065 199.726 48.8037 200.321 48.5604L201.01 52.6164C200.47 52.8868 199.645 53.1302 198.536 53.3465C197.455 53.5628 196.332 53.671 195.17 53.671C193.358 53.671 191.776 53.4006 190.424 52.8598C189.099 52.2919 187.991 51.5213 187.098 50.5478C186.233 49.5473 185.584 48.3711 185.151 47.0191C184.719 45.64 184.502 44.1528 184.502 42.5574ZM202.174 53.1437V22.4801L207.082 21.6688V32.174C207.622 31.9847 208.244 31.8225 208.947 31.6873C209.677 31.552 210.394 31.4844 211.097 31.4844C212.801 31.4844 214.207 31.7278 215.315 32.2145C216.451 32.6742 217.357 33.3367 218.033 34.202C218.709 35.0402 219.182 36.0542 219.452 37.244C219.75 38.4338 219.899 39.7588 219.899 41.2189V53.1437H214.991V41.9896C214.991 40.8539 214.91 39.894 214.747 39.1098C214.612 38.2986 214.369 37.6496 214.017 37.1629C213.693 36.6491 213.247 36.2841 212.679 36.0678C212.111 35.8244 211.408 35.7027 210.57 35.7027C209.921 35.7027 209.258 35.7703 208.582 35.9055C207.906 36.0407 207.406 36.1624 207.082 36.2706V53.1437H202.174ZM229.245 32.5796C229.191 32.2281 229.164 31.8765 229.164 31.525C229.164 31.1735 229.164 30.8896 229.164 30.6732C229.218 29.0508 229.529 27.496 230.097 26.0088C230.692 24.5216 231.408 23.1831 232.246 21.9933L235.856 22.9668C235.315 24.1565 234.896 25.4139 234.599 26.7389C234.301 28.0639 234.153 29.3212 234.153 30.511C234.153 30.7273 234.153 31.0383 234.153 31.4439C234.153 31.8495 234.18 32.2281 234.234 32.5796H229.245ZM256.743 53.1437C255.824 51.6024 254.796 49.9529 253.66 48.1953C252.525 46.4107 251.348 44.626 250.132 42.8413C248.915 41.0297 247.671 39.2856 246.4 37.6091C245.156 35.9055 243.966 34.3778 242.831 33.0257V53.1437H237.801V25.0354H241.979C243.061 26.171 244.223 27.5231 245.467 29.0914C246.711 30.6327 247.955 32.2416 249.199 33.9181C250.47 35.5946 251.686 37.2846 252.849 38.9881C254.039 40.6646 255.093 42.2329 256.013 43.6931V25.0354H261.083V53.1437H256.743ZM269.651 22.3989C269.678 22.7234 269.691 23.0614 269.691 23.4129C269.718 23.7645 269.718 24.0484 269.691 24.2647C269.637 25.8871 269.313 27.4555 268.718 28.9697C268.15 30.4569 267.447 31.7819 266.609 32.9446L263.039 32.0117C263.58 30.822 263.999 29.5646 264.297 28.2396C264.594 26.9146 264.743 25.6438 264.743 24.4269C264.743 24.2377 264.729 23.9402 264.702 23.5346C264.702 23.129 264.675 22.7505 264.621 22.3989H269.651ZM292.744 28.8886C289.85 28.8886 287.633 29.7944 286.092 31.6061C284.578 33.3908 283.82 35.8785 283.82 39.0692C283.82 40.5835 283.996 41.9761 284.348 43.247C284.726 44.4908 285.267 45.5589 285.97 46.4512C286.7 47.3435 287.593 48.0466 288.647 48.5604C289.729 49.0471 290.986 49.2904 292.419 49.2904C293.312 49.2904 294.082 49.2634 294.731 49.2093C295.38 49.1282 295.894 49.0336 296.272 48.9254V38.8259H301.383V52.3325C300.68 52.6029 299.49 52.9003 297.814 53.2248C296.137 53.5493 294.204 53.7115 292.014 53.7115C289.986 53.7115 288.133 53.387 286.457 52.7381C284.78 52.0891 283.347 51.1427 282.157 49.8988C280.995 48.655 280.089 47.1272 279.44 45.3155C278.791 43.5038 278.466 41.4217 278.466 39.0692C278.466 36.7167 278.818 34.6346 279.521 32.8229C280.251 31.0112 281.238 29.4835 282.482 28.2396C283.726 26.9687 285.186 26.0088 286.862 25.3598C288.539 24.7109 290.324 24.3864 292.216 24.3864C293.514 24.3864 294.664 24.481 295.664 24.6703C296.692 24.8326 297.57 25.0218 298.3 25.2382C299.031 25.4545 299.625 25.6843 300.085 25.9277C300.572 26.171 300.91 26.3468 301.099 26.455L299.558 30.6327C298.747 30.146 297.733 29.7404 296.516 29.4159C295.326 29.0643 294.069 28.8886 292.744 28.8886ZM303.233 42.6385C303.233 40.7728 303.504 39.1368 304.045 37.7307C304.612 36.3247 305.356 35.1619 306.275 34.2426C307.195 33.2961 308.249 32.5931 309.439 32.1334C310.629 31.6467 311.846 31.4033 313.089 31.4033C316.01 31.4033 318.281 32.3092 319.904 34.1209C321.553 35.9326 322.378 38.6366 322.378 42.2329C322.378 42.5033 322.364 42.8143 322.337 43.1658C322.337 43.4903 322.324 43.7878 322.297 44.0582H308.303C308.439 45.7617 309.033 47.0867 310.088 48.0331C311.17 48.9524 312.724 49.4121 314.752 49.4121C315.942 49.4121 317.024 49.304 317.997 49.0876C318.998 48.8713 319.782 48.6415 320.35 48.3981L320.999 52.4136C320.728 52.5488 320.35 52.6975 319.863 52.8598C319.403 52.995 318.863 53.1166 318.241 53.2248C317.646 53.36 316.997 53.4682 316.294 53.5493C315.591 53.6304 314.874 53.671 314.144 53.671C312.278 53.671 310.656 53.4006 309.277 52.8598C307.898 52.2919 306.762 51.5213 305.87 50.5478C304.977 49.5473 304.315 48.3846 303.882 47.0596C303.45 45.7076 303.233 44.2339 303.233 42.6385ZM317.47 40.4483C317.47 39.7723 317.375 39.1368 317.186 38.542C316.997 37.92 316.713 37.3927 316.334 36.9601C315.983 36.5004 315.537 36.1489 314.996 35.9055C314.482 35.6351 313.86 35.4999 313.13 35.4999C312.373 35.4999 311.71 35.6486 311.143 35.9461C310.575 36.2165 310.088 36.5815 309.682 37.0412C309.304 37.5009 309.006 38.0282 308.79 38.6231C308.574 39.218 308.425 39.8264 308.344 40.4483H317.47ZM324.701 26.3333L329.609 25.5221V31.9306H337.153V36.0272H329.609V44.6666C329.609 46.3701 329.88 47.5869 330.42 48.317C330.961 49.0471 331.881 49.4121 333.179 49.4121C334.071 49.4121 334.855 49.3175 335.531 49.1282C336.234 48.9389 336.788 48.7632 337.194 48.6009L338.005 52.4947C337.437 52.7381 336.694 52.9814 335.774 53.2248C334.855 53.4952 333.773 53.6304 332.53 53.6304C331.015 53.6304 329.744 53.4276 328.717 53.022C327.716 52.6164 326.919 52.035 326.324 51.2779C325.729 50.4937 325.31 49.5608 325.066 48.4792C324.823 47.3706 324.701 46.1132 324.701 44.7071V26.3333Z" fill="#373948"/>
<path d="M36.0846 17.6692C32.6928 15.582 32.0623 18.3215 32.171 19.9521L32.171 36.9109L47.1731 25.8225L36.0846 17.6692Z" fill="#E63946"/>
<path d="M26.6267 20.6044L18.1474 26.8009C15.2122 29.0838 16.5168 32.6712 19.778 32.3451H26.3006L26.6267 20.6044Z" fill="#4C39C3"/>
<path d="M78.4818 68.2196L94.4622 57.1311C99.028 54.196 98.7018 50.3135 91.527 50.6396H79.1128L78.4818 68.2196Z" fill="#1D3557"/>
<path d="M69.35 17.017L32.8233 42.7814C30.3435 44.5306 31.79 46.1193 32.8233 46.695L67.7193 71.8071C72.1547 73.8943 73.2635 71.1548 73.2635 69.5241V18.6477C73.0026 15.2559 70.5458 16.1474 69.35 17.017Z" fill="#4C39C3"/>
<path d="M113.379 68.8929C114.765 68.8929 115.458 68.4187 115.458 67.4702C115.458 67.1784 115.394 66.9322 115.266 66.7316C115.148 66.5218 114.984 66.344 114.774 66.1981C114.564 66.043 114.323 65.9108 114.049 65.8014C113.785 65.6919 113.502 65.5825 113.201 65.4731C112.854 65.3545 112.526 65.2223 112.216 65.0764C111.906 64.9213 111.637 64.7435 111.409 64.5429C111.181 64.3331 110.999 64.0869 110.862 63.8042C110.734 63.5215 110.67 63.1795 110.67 62.7783C110.67 61.9484 110.953 61.3009 111.518 60.8358C112.084 60.3707 112.864 60.1382 113.858 60.1382C114.432 60.1382 114.952 60.202 115.417 60.3297C115.891 60.4482 116.238 60.5805 116.457 60.7264L116.033 61.807C115.841 61.6885 115.554 61.5745 115.171 61.4651C114.797 61.3465 114.359 61.2872 113.858 61.2872C113.602 61.2872 113.365 61.3146 113.146 61.3693C112.927 61.424 112.736 61.5061 112.572 61.6155C112.408 61.725 112.275 61.8663 112.175 62.0396C112.084 62.2037 112.038 62.3998 112.038 62.6278C112.038 62.8831 112.088 63.0974 112.189 63.2707C112.289 63.444 112.43 63.599 112.613 63.7358C112.795 63.8635 113.005 63.982 113.242 64.0915C113.488 64.2009 113.757 64.3103 114.049 64.4198C114.459 64.5839 114.833 64.7481 115.171 64.9122C115.517 65.0764 115.814 65.2724 116.06 65.5004C116.315 65.7284 116.511 66.002 116.648 66.3212C116.785 66.6312 116.853 67.0097 116.853 67.4566C116.853 68.2864 116.548 68.9248 115.937 69.3716C115.335 69.8185 114.482 70.0419 113.379 70.0419C113.005 70.0419 112.658 70.0146 112.339 69.9598C112.029 69.9142 111.751 69.8595 111.505 69.7957C111.258 69.7227 111.044 69.6498 110.862 69.5768C110.689 69.4948 110.552 69.4264 110.451 69.3716L110.848 68.2773C111.058 68.3959 111.377 68.5281 111.806 68.674C112.234 68.8199 112.759 68.8929 113.379 68.8929ZM118.375 62.9287C118.667 62.8558 119.05 62.7783 119.524 62.6962C120.007 62.6141 120.563 62.5731 121.193 62.5731C121.649 62.5731 122.032 62.6369 122.342 62.7646C122.652 62.8831 122.912 63.061 123.121 63.2981C123.185 63.2525 123.286 63.1886 123.422 63.1066C123.559 63.0245 123.728 62.947 123.929 62.874C124.129 62.7919 124.353 62.7235 124.599 62.6688C124.845 62.605 125.109 62.5731 125.392 62.5731C125.939 62.5731 126.386 62.6552 126.733 62.8193C127.079 62.9743 127.348 63.1978 127.54 63.4896C127.74 63.7814 127.873 64.1279 127.937 64.5292C128.009 64.9305 128.046 65.3682 128.046 65.8424V69.8367H126.774V66.116C126.774 65.6965 126.751 65.3363 126.705 65.0353C126.669 64.7344 126.591 64.4836 126.473 64.283C126.363 64.0823 126.208 63.9364 126.008 63.8452C125.816 63.7449 125.565 63.6948 125.255 63.6948C124.827 63.6948 124.471 63.754 124.188 63.8726C123.915 63.982 123.728 64.0823 123.628 64.1735C123.701 64.4106 123.755 64.6706 123.792 64.9533C123.828 65.236 123.846 65.5323 123.846 65.8424V69.8367H122.574V66.116C122.574 65.6965 122.551 65.3363 122.506 65.0353C122.46 64.7344 122.378 64.4836 122.26 64.283C122.15 64.0823 121.995 63.9364 121.795 63.8452C121.603 63.7449 121.357 63.6948 121.056 63.6948C120.928 63.6948 120.791 63.6993 120.646 63.7084C120.5 63.7176 120.358 63.7312 120.221 63.7495C120.094 63.7586 119.975 63.7723 119.866 63.7905C119.756 63.8088 119.683 63.8224 119.647 63.8316V69.8367H118.375V62.9287ZM132.565 68.9202C132.866 68.9202 133.13 68.9157 133.358 68.9065C133.595 68.8883 133.791 68.8609 133.946 68.8245V66.7042C133.855 66.6586 133.705 66.6221 133.495 66.5948C133.294 66.5583 133.048 66.54 132.756 66.54C132.565 66.54 132.359 66.5537 132.141 66.5811C131.931 66.6084 131.735 66.6677 131.552 66.7589C131.379 66.841 131.233 66.9595 131.115 67.1146C130.996 67.2605 130.937 67.4566 130.937 67.7028C130.937 68.1587 131.083 68.4779 131.374 68.6603C131.666 68.8336 132.063 68.9202 132.565 68.9202ZM132.455 62.5457C132.966 62.5457 133.394 62.6141 133.741 62.7509C134.097 62.8786 134.379 63.0655 134.589 63.3118C134.808 63.5489 134.963 63.8361 135.054 64.1735C135.145 64.5018 135.191 64.8666 135.191 65.2679V69.7136C135.082 69.7319 134.927 69.7592 134.726 69.7957C134.534 69.8231 134.316 69.8504 134.069 69.8778C133.823 69.9051 133.554 69.9279 133.262 69.9462C132.98 69.9735 132.697 69.9872 132.414 69.9872C132.013 69.9872 131.644 69.9462 131.306 69.8641C130.969 69.782 130.677 69.6543 130.431 69.4811C130.184 69.2987 129.993 69.0616 129.856 68.7698C129.719 68.4779 129.651 68.1268 129.651 67.7165C129.651 67.3243 129.728 66.9869 129.883 66.7042C130.048 66.4215 130.266 66.1935 130.54 66.0202C130.814 65.847 131.133 65.7193 131.498 65.6372C131.862 65.5551 132.245 65.5141 132.647 65.5141C132.774 65.5141 132.907 65.5232 133.043 65.5415C133.18 65.5506 133.308 65.5688 133.426 65.5962C133.554 65.6144 133.663 65.6327 133.755 65.6509C133.846 65.6691 133.91 65.6828 133.946 65.6919V65.3363C133.946 65.1265 133.923 64.9213 133.878 64.7207C133.832 64.511 133.75 64.3286 133.632 64.1735C133.513 64.0094 133.349 63.8817 133.139 63.7905C132.938 63.6902 132.674 63.6401 132.346 63.6401C131.926 63.6401 131.557 63.672 131.238 63.7358C130.928 63.7905 130.695 63.8498 130.54 63.9136L130.39 62.8603C130.554 62.7874 130.827 62.719 131.21 62.6552C131.593 62.5822 132.008 62.5457 132.455 62.5457ZM139.93 62.5731C140.04 62.5731 140.163 62.5822 140.3 62.6004C140.446 62.6096 140.587 62.6278 140.724 62.6552C140.86 62.6734 140.984 62.6962 141.093 62.7235C141.212 62.7418 141.298 62.76 141.353 62.7783L141.134 63.8863C141.034 63.8498 140.865 63.8088 140.628 63.7632C140.4 63.7084 140.104 63.6811 139.739 63.6811C139.502 63.6811 139.265 63.7084 139.027 63.7632C138.799 63.8088 138.649 63.8407 138.576 63.8589V69.8367H137.304V63.0245C137.605 62.9151 137.979 62.8147 138.426 62.7235C138.872 62.6232 139.374 62.5731 139.93 62.5731ZM143.771 62.7235H146.465V63.7905H143.771V67.0735C143.771 67.4292 143.798 67.7256 143.853 67.9627C143.907 68.1907 143.989 68.3731 144.099 68.5098C144.208 68.6375 144.345 68.7287 144.509 68.7834C144.673 68.8381 144.865 68.8655 145.084 68.8655C145.467 68.8655 145.772 68.8245 146 68.7424C146.237 68.6512 146.402 68.5874 146.493 68.5509L146.739 69.6042C146.611 69.668 146.388 69.7455 146.069 69.8367C145.75 69.937 145.385 69.9872 144.974 69.9872C144.491 69.9872 144.09 69.9279 143.771 69.8094C143.461 69.6817 143.21 69.4948 143.018 69.2485C142.827 69.0023 142.69 68.7014 142.608 68.3457C142.535 67.9809 142.498 67.5614 142.498 67.0872V60.7401L143.771 60.5212V62.7235ZM147.554 66.2938C147.554 65.6646 147.645 65.1174 147.828 64.6523C148.01 64.1781 148.252 63.786 148.553 63.4759C148.854 63.1658 149.2 62.9333 149.592 62.7783C149.984 62.6232 150.386 62.5457 150.796 62.5457C151.754 62.5457 152.488 62.8467 152.998 63.4485C153.509 64.0413 153.764 64.9487 153.764 66.1707C153.764 66.2254 153.764 66.2984 153.764 66.3896C153.764 66.4716 153.76 66.5492 153.751 66.6221H148.881C148.936 67.3608 149.15 67.9216 149.524 68.3047C149.898 68.6877 150.481 68.8792 151.275 68.8792C151.722 68.8792 152.095 68.8427 152.396 68.7698C152.706 68.6877 152.939 68.6102 153.094 68.5372L153.272 69.6042C153.117 69.6863 152.843 69.7729 152.451 69.8641C152.068 69.9553 151.63 70.0009 151.138 70.0009C150.518 70.0009 149.98 69.9097 149.524 69.7273C149.077 69.5358 148.708 69.2759 148.416 68.9476C148.124 68.6193 147.905 68.2317 147.759 67.7849C147.622 67.3289 147.554 66.8319 147.554 66.2938ZM152.437 65.5962C152.447 65.0217 152.301 64.552 152 64.1872C151.708 63.8133 151.302 63.6264 150.782 63.6264C150.49 63.6264 150.231 63.6857 150.003 63.8042C149.784 63.9136 149.597 64.0595 149.442 64.2419C149.287 64.4243 149.164 64.6341 149.072 64.8712C148.99 65.1083 148.936 65.35 148.908 65.5962H152.437ZM158.218 62.5731C158.328 62.5731 158.451 62.5822 158.588 62.6004C158.733 62.6096 158.875 62.6278 159.012 62.6552C159.148 62.6734 159.272 62.6962 159.381 62.7235C159.499 62.7418 159.586 62.76 159.641 62.7783L159.422 63.8863C159.322 63.8498 159.153 63.8088 158.916 63.7632C158.688 63.7084 158.391 63.6811 158.027 63.6811C157.79 63.6811 157.552 63.7084 157.315 63.7632C157.087 63.8088 156.937 63.8407 156.864 63.8589V69.8367H155.592V63.0245C155.893 62.9151 156.267 62.8147 156.714 62.7235C157.16 62.6232 157.662 62.5731 158.218 62.5731ZM163.569 67.3198C163.569 66.9641 163.624 66.6495 163.733 66.3759C163.843 66.0932 163.989 65.8424 164.171 65.6235C164.363 65.3956 164.582 65.1995 164.828 65.0353C165.074 64.8621 165.329 64.7116 165.594 64.5839C164.919 63.9091 164.582 63.2114 164.582 62.491C164.582 62.1262 164.641 61.7979 164.759 61.5061C164.887 61.2143 165.056 60.9681 165.266 60.7674C165.484 60.5668 165.74 60.4118 166.032 60.3023C166.333 60.1929 166.661 60.1382 167.017 60.1382C167.381 60.1382 167.705 60.1929 167.988 60.3023C168.28 60.4118 168.521 60.5577 168.713 60.7401C168.913 60.9225 169.064 61.1413 169.164 61.3967C169.264 61.652 169.315 61.921 169.315 62.2037C169.315 62.5229 169.26 62.8102 169.15 63.0655C169.05 63.3209 168.909 63.5534 168.726 63.7632C168.553 63.9729 168.353 64.1644 168.125 64.3377C167.897 64.511 167.655 64.666 167.4 64.8028L169.616 67.0599C169.926 66.4853 170.126 65.847 170.217 65.1448L171.271 65.2816C171.234 65.6555 171.139 66.0658 170.983 66.5127C170.838 66.9504 170.628 67.3882 170.354 67.8259C170.673 68.1724 170.965 68.5144 171.23 68.8518C171.503 69.1892 171.727 69.5175 171.9 69.8367H170.559C170.45 69.6543 170.313 69.4674 170.149 69.2759C169.994 69.0844 169.83 68.8929 169.657 68.7014C169.283 69.0753 168.85 69.3808 168.357 69.6179C167.865 69.8459 167.299 69.9598 166.661 69.9598C166.068 69.9598 165.576 69.8778 165.183 69.7136C164.791 69.5403 164.472 69.326 164.226 69.0707C163.989 68.8062 163.82 68.519 163.72 68.2089C163.62 67.8988 163.569 67.6025 163.569 67.3198ZM164.842 67.2924C164.842 67.4566 164.873 67.6344 164.937 67.8259C165.001 68.0174 165.106 68.1952 165.252 68.3594C165.398 68.5144 165.585 68.6466 165.813 68.7561C166.05 68.8564 166.342 68.9065 166.688 68.9065C167.135 68.9065 167.545 68.8245 167.919 68.6603C168.302 68.4962 168.64 68.2636 168.932 67.9627L166.264 65.2679C166.1 65.35 165.931 65.4457 165.758 65.5551C165.594 65.6646 165.443 65.8014 165.307 65.9655C165.17 66.1205 165.056 66.3075 164.965 66.5264C164.883 66.7452 164.842 67.0006 164.842 67.2924ZM168.166 62.2448C168.166 61.9347 168.061 61.6748 167.851 61.4651C167.65 61.2462 167.372 61.1368 167.017 61.1368C166.615 61.1368 166.305 61.2599 166.086 61.5061C165.877 61.7432 165.772 62.0396 165.772 62.3952C165.772 62.988 166.082 63.5671 166.702 64.1325C166.903 64.0322 167.089 63.9228 167.263 63.8042C167.445 63.6857 167.6 63.5489 167.728 63.3938C167.865 63.2388 167.969 63.0701 168.042 62.8877C168.125 62.6962 168.166 62.4819 168.166 62.2448ZM178.595 68.8929C179.982 68.8929 180.675 68.4187 180.675 67.4702C180.675 67.1784 180.611 66.9322 180.483 66.7316C180.365 66.5218 180.2 66.344 179.991 66.1981C179.781 66.043 179.539 65.9108 179.266 65.8014C179.001 65.6919 178.719 65.5825 178.418 65.4731C178.071 65.3545 177.743 65.2223 177.433 65.0764C177.123 64.9213 176.854 64.7435 176.626 64.5429C176.398 64.3331 176.215 64.0869 176.078 63.8042C175.951 63.5215 175.887 63.1795 175.887 62.7783C175.887 61.9484 176.17 61.3009 176.735 60.8358C177.3 60.3707 178.08 60.1382 179.074 60.1382C179.649 60.1382 180.169 60.202 180.634 60.3297C181.108 60.4482 181.454 60.5805 181.673 60.7264L181.249 61.807C181.058 61.6885 180.77 61.5745 180.387 61.4651C180.013 61.3465 179.576 61.2872 179.074 61.2872C178.819 61.2872 178.582 61.3146 178.363 61.3693C178.144 61.424 177.952 61.5061 177.788 61.6155C177.624 61.725 177.492 61.8663 177.392 62.0396C177.3 62.2037 177.255 62.3998 177.255 62.6278C177.255 62.8831 177.305 63.0974 177.405 63.2707C177.506 63.444 177.647 63.599 177.829 63.7358C178.012 63.8635 178.222 63.982 178.459 64.0915C178.705 64.2009 178.974 64.3103 179.266 64.4198C179.676 64.5839 180.05 64.7481 180.387 64.9122C180.734 65.0764 181.03 65.2724 181.277 65.5004C181.532 65.7284 181.728 66.002 181.865 66.3212C182.002 66.6312 182.07 67.0097 182.07 67.4566C182.07 68.2864 181.764 68.9248 181.153 69.3716C180.552 69.8185 179.699 70.0419 178.595 70.0419C178.222 70.0419 177.875 70.0146 177.556 69.9598C177.246 69.9142 176.968 69.8595 176.721 69.7957C176.475 69.7227 176.261 69.6498 176.078 69.5768C175.905 69.4948 175.768 69.4264 175.668 69.3716L176.065 68.2773C176.275 68.3959 176.594 68.5281 177.022 68.674C177.451 68.8199 177.975 68.8929 178.595 68.8929ZM185.999 68.9202C186.3 68.9202 186.564 68.9157 186.792 68.9065C187.029 68.8883 187.226 68.8609 187.381 68.8245V66.7042C187.289 66.6586 187.139 66.6221 186.929 66.5948C186.729 66.5583 186.482 66.54 186.19 66.54C185.999 66.54 185.794 66.5537 185.575 66.5811C185.365 66.6084 185.169 66.6677 184.987 66.7589C184.813 66.841 184.668 66.9595 184.549 67.1146C184.43 67.2605 184.371 67.4566 184.371 67.7028C184.371 68.1587 184.517 68.4779 184.809 68.6603C185.101 68.8336 185.497 68.9202 185.999 68.9202ZM185.89 62.5457C186.4 62.5457 186.829 62.6141 187.175 62.7509C187.531 62.8786 187.814 63.0655 188.023 63.3118C188.242 63.5489 188.397 63.8361 188.489 64.1735C188.58 64.5018 188.625 64.8666 188.625 65.2679V69.7136C188.516 69.7319 188.361 69.7592 188.16 69.7957C187.969 69.8231 187.75 69.8504 187.504 69.8778C187.257 69.9051 186.988 69.9279 186.697 69.9462C186.414 69.9735 186.131 69.9872 185.848 69.9872C185.447 69.9872 185.078 69.9462 184.74 69.8641C184.403 69.782 184.111 69.6543 183.865 69.4811C183.619 69.2987 183.427 69.0616 183.29 68.7698C183.154 68.4779 183.085 68.1268 183.085 67.7165C183.085 67.3243 183.163 66.9869 183.318 66.7042C183.482 66.4215 183.701 66.1935 183.974 66.0202C184.248 65.847 184.567 65.7193 184.932 65.6372C185.297 65.5551 185.68 65.5141 186.081 65.5141C186.209 65.5141 186.341 65.5232 186.478 65.5415C186.615 65.5506 186.742 65.5688 186.861 65.5962C186.988 65.6144 187.098 65.6327 187.189 65.6509C187.28 65.6691 187.344 65.6828 187.381 65.6919V65.3363C187.381 65.1265 187.358 64.9213 187.312 64.7207C187.267 64.511 187.184 64.3286 187.066 64.1735C186.947 64.0094 186.783 63.8817 186.573 63.7905C186.373 63.6902 186.108 63.6401 185.78 63.6401C185.361 63.6401 184.991 63.672 184.672 63.7358C184.362 63.7905 184.129 63.8498 183.974 63.9136L183.824 62.8603C183.988 62.7874 184.262 62.719 184.645 62.6552C185.028 62.5822 185.443 62.5457 185.89 62.5457ZM193.515 59.2217C193.889 59.2217 194.208 59.249 194.473 59.3037C194.746 59.3585 194.938 59.4086 195.047 59.4542L194.815 60.5486C194.705 60.4938 194.55 60.4437 194.35 60.3981C194.149 60.3434 193.903 60.316 193.611 60.316C193.018 60.316 192.603 60.4802 192.366 60.8085C192.129 61.1276 192.01 61.5608 192.01 62.108V62.7235H194.746V63.7905H192.01V69.8367H190.738V62.0806C190.738 61.1687 190.962 60.4665 191.409 59.974C191.855 59.4725 192.558 59.2217 193.515 59.2217ZM195.618 66.2938C195.618 65.6646 195.709 65.1174 195.892 64.6523C196.074 64.1781 196.316 63.786 196.617 63.4759C196.918 63.1658 197.264 62.9333 197.656 62.7783C198.049 62.6232 198.45 62.5457 198.86 62.5457C199.818 62.5457 200.552 62.8467 201.063 63.4485C201.573 64.0413 201.829 64.9487 201.829 66.1707C201.829 66.2254 201.829 66.2984 201.829 66.3896C201.829 66.4716 201.824 66.5492 201.815 66.6221H196.945C197 67.3608 197.214 67.9216 197.588 68.3047C197.962 68.6877 198.546 68.8792 199.339 68.8792C199.786 68.8792 200.16 68.8427 200.461 68.7698C200.771 68.6877 201.003 68.6102 201.158 68.5372L201.336 69.6042C201.181 69.6863 200.907 69.7729 200.515 69.8641C200.132 69.9553 199.695 70.0009 199.202 70.0009C198.582 70.0009 198.044 69.9097 197.588 69.7273C197.141 69.5358 196.772 69.2759 196.48 68.9476C196.188 68.6193 195.969 68.2317 195.823 67.7849C195.687 67.3289 195.618 66.8319 195.618 66.2938ZM200.502 65.5962C200.511 65.0217 200.365 64.552 200.064 64.1872C199.772 63.8133 199.366 63.6264 198.847 63.6264C198.555 63.6264 198.295 63.6857 198.067 63.8042C197.848 63.9136 197.661 64.0595 197.506 64.2419C197.351 64.4243 197.228 64.6341 197.137 64.8712C197.055 65.1083 197 65.35 196.972 65.5962H200.502ZM206.282 62.5731C206.392 62.5731 206.515 62.5822 206.652 62.6004C206.798 62.6096 206.939 62.6278 207.076 62.6552C207.213 62.6734 207.336 62.6962 207.445 62.7235C207.564 62.7418 207.65 62.76 207.705 62.7783L207.486 63.8863C207.386 63.8498 207.217 63.8088 206.98 63.7632C206.752 63.7084 206.456 63.6811 206.091 63.6811C205.854 63.6811 205.617 63.7084 205.38 63.7632C205.152 63.8088 205.001 63.8407 204.928 63.8589V69.8367H203.656V63.0245C203.957 62.9151 204.331 62.8147 204.778 62.7235C205.225 62.6232 205.726 62.5731 206.282 62.5731ZM216.736 66.7863C216.736 67.2422 216.686 67.6663 216.585 68.0584C216.494 68.4506 216.326 68.7971 216.079 69.0981C215.842 69.3899 215.518 69.6224 215.108 69.7957C214.707 69.9598 214.201 70.0419 213.59 70.0419C213.28 70.0419 212.992 70.0146 212.728 69.9598C212.473 69.9142 212.24 69.855 212.03 69.782C211.821 69.6999 211.638 69.6179 211.483 69.5358C211.328 69.4446 211.205 69.358 211.114 69.2759L211.634 68.2226C211.825 68.3594 212.071 68.5053 212.372 68.6603C212.682 68.8062 213.065 68.8792 213.521 68.8792C214.178 68.8792 214.657 68.715 214.958 68.3867C215.259 68.0493 215.409 67.4748 215.409 66.6632V60.357H216.736V66.7863ZM225.217 66.2801C225.217 66.8455 225.135 67.3562 224.971 67.8122C224.807 68.2682 224.574 68.6603 224.273 68.9886C223.981 69.3169 223.63 69.5723 223.22 69.7547C222.809 69.9279 222.363 70.0146 221.879 70.0146C221.396 70.0146 220.949 69.9279 220.539 69.7547C220.128 69.5723 219.773 69.3169 219.472 68.9886C219.18 68.6603 218.952 68.2682 218.788 67.8122C218.624 67.3562 218.542 66.8455 218.542 66.2801C218.542 65.7239 218.624 65.2177 218.788 64.7617C218.952 64.2967 219.18 63.9 219.472 63.5717C219.773 63.2434 220.128 62.9926 220.539 62.8193C220.949 62.6369 221.396 62.5457 221.879 62.5457C222.363 62.5457 222.809 62.6369 223.22 62.8193C223.63 62.9926 223.981 63.2434 224.273 63.5717C224.574 63.9 224.807 64.2967 224.971 64.7617C225.135 65.2177 225.217 65.7239 225.217 66.2801ZM223.89 66.2801C223.89 65.4776 223.708 64.8438 223.343 64.3787C222.987 63.9045 222.499 63.6674 221.879 63.6674C221.259 63.6674 220.767 63.9045 220.402 64.3787C220.046 64.8438 219.868 65.4776 219.868 66.2801C219.868 67.0827 220.046 67.721 220.402 68.1952C220.767 68.6603 221.259 68.8929 221.879 68.8929C222.499 68.8929 222.987 68.6603 223.343 68.1952C223.708 67.721 223.89 67.0827 223.89 66.2801ZM228.279 63.0382C228.434 62.9379 228.667 62.833 228.977 62.7235C229.296 62.6141 229.661 62.5594 230.071 62.5594C230.582 62.5594 231.033 62.6506 231.425 62.833C231.826 63.0154 232.164 63.2707 232.437 63.599C232.711 63.9273 232.916 64.3195 233.053 64.7754C233.199 65.2314 233.272 65.733 233.272 66.2801C233.272 66.8547 233.185 67.3745 233.012 67.8396C232.848 68.2955 232.611 68.6831 232.301 69.0023C231.991 69.3215 231.617 69.5677 231.179 69.741C230.741 69.9142 230.249 70.0009 229.702 70.0009C229.109 70.0009 228.585 69.9598 228.129 69.8778C227.673 69.7957 227.299 69.7136 227.007 69.6315V59.4405L228.279 59.2217V63.0382ZM228.279 68.7287C228.407 68.7652 228.585 68.8017 228.812 68.8381C229.05 68.8655 229.341 68.8792 229.688 68.8792C230.372 68.8792 230.919 68.6558 231.329 68.2089C231.74 67.7529 231.945 67.11 231.945 66.2801C231.945 65.9154 231.909 65.5734 231.836 65.2542C231.763 64.935 231.644 64.6614 231.48 64.4334C231.316 64.1963 231.101 64.014 230.837 63.8863C230.582 63.7495 230.272 63.6811 229.907 63.6811C229.56 63.6811 229.241 63.7404 228.949 63.8589C228.657 63.9775 228.434 64.1006 228.279 64.2283V68.7287ZM244.274 60.357H245.601V69.8367H244.274V65.4594H239.637V69.8367H238.31V60.357H239.637V64.3103H244.274V60.357ZM253.536 69.6315C253.244 69.7045 252.857 69.782 252.373 69.8641C251.899 69.9462 251.347 69.9872 250.718 69.9872C250.171 69.9872 249.711 69.9097 249.337 69.7547C248.963 69.5905 248.662 69.3625 248.434 69.0707C248.206 68.7789 248.042 68.4369 247.941 68.0448C247.841 67.6435 247.791 67.2012 247.791 66.7179V62.7235H249.063V66.4443C249.063 67.3106 249.2 67.9308 249.473 68.3047C249.747 68.6786 250.208 68.8655 250.855 68.8655C250.992 68.8655 251.133 68.8609 251.279 68.8518C251.425 68.8427 251.562 68.8336 251.689 68.8245C251.817 68.8062 251.931 68.7926 252.031 68.7834C252.141 68.7652 252.218 68.747 252.264 68.7287V62.7235H253.536V69.6315ZM257 63.0382C257.155 62.9379 257.388 62.833 257.698 62.7235C258.017 62.6141 258.382 62.5594 258.792 62.5594C259.303 62.5594 259.754 62.6506 260.146 62.833C260.547 63.0154 260.885 63.2707 261.158 63.599C261.432 63.9273 261.637 64.3195 261.774 64.7754C261.92 65.2314 261.993 65.733 261.993 66.2801C261.993 66.8547 261.906 67.3745 261.733 67.8396C261.569 68.2955 261.332 68.6831 261.022 69.0023C260.712 69.3215 260.338 69.5677 259.9 69.741C259.462 69.9142 258.97 70.0009 258.423 70.0009C257.83 70.0009 257.305 69.9598 256.849 69.8778C256.394 69.7957 256.02 69.7136 255.728 69.6315V59.4405L257 59.2217V63.0382ZM257 68.7287C257.128 68.7652 257.305 68.8017 257.533 68.8381C257.771 68.8655 258.062 68.8792 258.409 68.8792C259.093 68.8792 259.64 68.6558 260.05 68.2089C260.461 67.7529 260.666 67.11 260.666 66.2801C260.666 65.9154 260.63 65.5734 260.557 65.2542C260.484 64.935 260.365 64.6614 260.201 64.4334C260.037 64.1963 259.822 64.014 259.558 63.8863C259.303 63.7495 258.993 63.6811 258.628 63.6811C258.281 63.6811 257.962 63.7404 257.67 63.8589C257.378 63.9775 257.155 64.1006 257 64.2283V68.7287Z" fill="#1D3557" fill-opacity="0.8"/>
</svg>
