<svg width="98" height="97" viewBox="0 0 98 97" fill="none" xmlns="http://www.w3.org/2000/svg">
<rect width="98" height="97" rx="14" fill="white"/>
<path d="M37.3057 49.779C37.6687 49.0993 37.9197 48.5663 38.0588 48.1801C38.1978 47.7939 38.2673 47.4154 38.2673 47.0447C38.2673 46.6971 38.1746 46.4268 37.9892 46.2337C37.8039 46.0406 37.549 45.944 37.2246 45.944C36.7843 45.944 36.3208 46.1294 35.8342 46.5001L35.7068 45.3068C36.2706 44.9206 36.877 44.7274 37.5258 44.7274C38.1669 44.7274 38.6651 44.9321 39.0204 45.3415C39.3757 45.7432 39.5534 46.253 39.5534 46.8709C39.5534 47.3575 39.4684 47.8364 39.2985 48.3076C39.1286 48.771 38.8196 49.4199 38.3716 50.2541L37.5258 51.8182H39.7156V53H35.5677L37.3057 49.779ZM44.6533 48.5625C44.9854 48.771 45.2442 49.0568 45.4296 49.4199C45.615 49.7829 45.7076 50.1961 45.7076 50.6596C45.7076 51.1462 45.6072 51.5788 45.4064 51.9572C45.2133 52.3357 44.9314 52.6331 44.5606 52.8494C44.1899 53.0579 43.7534 53.1622 43.2514 53.1622C42.7493 53.1622 42.3129 53.0579 41.9421 52.8494C41.5791 52.6331 41.301 52.3357 41.1079 51.9572C40.9148 51.5788 40.8183 51.1462 40.8183 50.6596C40.8183 50.1884 40.911 49.7713 41.0963 49.4083C41.2817 49.0452 41.5482 48.7594 41.8958 48.5509C41.6718 48.3578 41.498 48.1183 41.3744 47.8326C41.2508 47.5468 41.189 47.2301 41.189 46.8825C41.189 46.504 41.2585 46.1526 41.3976 45.8281C41.5443 45.5037 41.7722 45.2411 42.0812 45.0403C42.3901 44.8317 42.7802 44.7274 43.2514 44.7274C43.9465 44.7274 44.4641 44.9399 44.8039 45.3647C45.1515 45.7818 45.3253 46.2877 45.3253 46.8825C45.3253 47.2301 45.2674 47.5506 45.1515 47.8441C45.0356 48.1299 44.8696 48.3694 44.6533 48.5625ZM43.2514 45.7934C42.9656 45.7934 42.7454 45.8977 42.591 46.1062C42.4442 46.307 42.3708 46.5774 42.3708 46.9172C42.3708 47.2417 42.4481 47.5159 42.6025 47.7399C42.757 47.9561 42.9733 48.0643 43.2514 48.0643C43.5372 48.0643 43.7573 47.9561 43.9118 47.7399C44.0663 47.5159 44.1435 47.2417 44.1435 46.9172C44.1435 46.5774 44.0663 46.307 43.9118 46.1062C43.7573 45.8977 43.5372 45.7934 43.2514 45.7934ZM43.2514 52.0499C43.6299 52.0499 43.9272 51.9186 44.1435 51.656C44.3675 51.3857 44.4795 51.0303 44.4795 50.5901C44.4795 50.1652 44.3675 49.8254 44.1435 49.5705C43.9272 49.3079 43.6299 49.1766 43.2514 49.1766C42.8729 49.1766 42.5794 49.3079 42.3708 49.5705C42.1623 49.8254 42.058 50.1652 42.058 50.5901C42.058 51.0303 42.1623 51.3857 42.3708 51.656C42.5794 51.9186 42.8729 52.0499 43.2514 52.0499ZM46.7549 51.6212H48.0294V53H46.7549V51.6212ZM50.9323 47.8905C51.6584 47.8905 52.2338 48.1261 52.6586 48.5972C53.0912 49.0607 53.3075 49.6786 53.3075 50.451C53.3075 50.9994 53.1955 51.4783 52.9715 51.8877C52.7552 52.2971 52.4501 52.6138 52.0562 52.8378C51.67 53.0541 51.2297 53.1622 50.7353 53.1622C50.0865 53.1622 49.4879 53 48.9395 52.6756L49.2407 51.517C49.7196 51.8105 50.1946 51.9572 50.6658 51.9572C51.0752 51.9572 51.4073 51.8259 51.6622 51.5633C51.9171 51.293 52.0446 50.9338 52.0446 50.4858C52.0446 49.9992 51.9055 49.6246 51.6275 49.3619C51.3571 49.0916 50.9864 48.9564 50.5152 48.9564C50.1522 48.9564 49.766 49.0143 49.3566 49.1302L49.8664 44.8897H52.9599L52.902 46.0714H50.8396L50.6195 47.9021C50.689 47.8943 50.7933 47.8905 50.9323 47.8905ZM55.8455 49.3619C55.3048 49.3619 54.88 49.1457 54.571 48.7131C54.2698 48.2806 54.1191 47.7128 54.1191 47.0099C54.1191 46.307 54.2698 45.7509 54.571 45.3415C54.8722 44.9321 55.2971 44.7274 55.8455 44.7274C56.3939 44.7274 56.8149 44.9321 57.1084 45.3415C57.4096 45.7509 57.5602 46.307 57.5602 47.0099C57.5602 47.7128 57.4096 48.2806 57.1084 48.7131C56.8071 49.1457 56.3862 49.3619 55.8455 49.3619ZM55.8455 48.4814C56.3167 48.4814 56.5522 47.9909 56.5522 47.0099C56.5522 46.0753 56.3167 45.608 55.8455 45.608C55.5983 45.608 55.4168 45.7239 55.3009 45.9556C55.1851 46.1873 55.1271 46.5388 55.1271 47.0099C55.1271 47.4966 55.1851 47.8634 55.3009 48.1106C55.4168 48.3578 55.5983 48.4814 55.8455 48.4814ZM59.808 44.8897H60.816L56.6565 53H55.6485L59.808 44.8897ZM60.6653 53.1622C60.1247 53.1622 59.6998 52.9459 59.3909 52.5134C59.0896 52.0808 58.939 51.5131 58.939 50.8102C58.939 50.1073 59.0896 49.5512 59.3909 49.1418C59.6921 48.7324 60.1169 48.5277 60.6653 48.5277C61.2138 48.5277 61.6347 48.7324 61.9282 49.1418C62.2295 49.5512 62.3801 50.1073 62.3801 50.8102C62.3801 51.5131 62.2295 52.0808 61.9282 52.5134C61.627 52.9459 61.206 53.1622 60.6653 53.1622ZM60.6653 52.2817C61.1365 52.2817 61.3721 51.7912 61.3721 50.8102C61.3721 49.8756 61.1365 49.4083 60.6653 49.4083C60.4182 49.4083 60.2367 49.5241 60.1208 49.7559C60.0049 49.9876 59.947 50.339 59.947 50.8102C59.947 51.2968 60.0049 51.6637 60.1208 51.9109C60.2367 52.1581 60.4182 52.2817 60.6653 52.2817Z" fill="black" fill-opacity="0.8"/>
<circle cx="49" cy="49" r="29" stroke="#EAEAEA" stroke-width="16"/>
<circle cx="49" cy="49" r="29" stroke="#EAEAEA" stroke-width="16"/>
<circle cx="49" cy="49" r="29" stroke="#EAEAEA" stroke-width="16"/>
<path d="M49 20C53.7691 20 58.4646 21.1762 62.6705 23.4243C66.8765 25.6724 70.4631 28.9231 73.1126 32.8885C75.7622 36.8538 77.3929 41.4114 77.8604 46.1575C78.3278 50.9036 77.6176 55.6918 75.7925 60.0978C73.9675 64.5039 71.084 68.3918 67.3974 71.4173C63.7109 74.4428 59.3351 76.5124 54.6576 77.4428C49.9802 78.3732 45.1455 78.1357 40.5817 76.7513C36.018 75.3669 31.8662 72.8783 28.4939 69.5061" stroke="url(#paint0_linear)" stroke-width="16"/>
<defs>
<linearGradient id="paint0_linear" x1="49" y1="86" x2="49" y2="12" gradientUnits="userSpaceOnUse">
<stop stop-color="#FE7852"/>
<stop offset="1" stop-color="#E63946"/>
</linearGradient>
</defs>
</svg>
