<svg width="84" height="87" viewBox="0 0 84 87" fill="none" xmlns="http://www.w3.org/2000/svg">
<g filter="url(#filter0_d)">
<path fill-rule="evenodd" clip-rule="evenodd" d="M15 3C10.5817 3 7 6.58173 7 11V52C7 56.4183 10.5817 60 15 60H54.1841L68.0149 67.9852V43.1063L68 43.1149V11C68 6.58173 64.4183 3 60 3H15Z" fill="white"/>
</g>
<g clip-path="url(#clip0)">
<path d="M38.278 49.1353H21.3251C20.8628 49.1353 20.5545 48.8271 20.5545 48.3647V46.8235C20.5545 46.3611 20.8628 46.0529 21.3251 46.0529H38.278C38.7404 46.0529 39.0486 46.3612 39.0486 46.8235V48.3647C39.0486 48.8271 38.7404 49.1353 38.278 49.1353Z" fill="#F6B545"/>
<path d="M35.1957 46.8236H20.5545C20.5545 46.3612 20.8628 46.053 21.3251 46.053H35.1957V46.8236Z" fill="#FFCB5B"/>
<path d="M35.1957 46.8236V47.5941C35.1957 48.0565 34.8874 48.3647 34.4251 48.3647H20.5545C20.5545 48.8271 20.8628 49.1353 21.3251 49.1353H34.4251H38.278C38.7404 49.1353 39.0486 48.827 39.0486 48.3647V46.8235H35.1957V46.8236Z" fill="#F19920"/>
<path d="M22.8663 48.3647V47.2088C22.8663 46.9776 22.7122 46.8235 22.481 46.8235C22.2498 46.8235 22.0957 46.9776 22.0957 47.2088V48.3647" fill="#F19920"/>
<path d="M25.178 48.3647V47.2088C25.178 46.9776 25.0239 46.8235 24.7927 46.8235C24.5616 46.8235 24.4075 46.9776 24.4075 47.2088V48.3647" fill="#F19920"/>
<path d="M27.4898 48.3647V47.2088C27.4898 46.9776 27.3357 46.8235 27.1045 46.8235C26.8733 46.8235 26.7192 46.9776 26.7192 47.2088V48.3647" fill="#F19920"/>
<path d="M29.8015 48.3647V47.2088C29.8015 46.9776 29.6474 46.8235 29.4163 46.8235C29.1851 46.8235 29.031 46.9776 29.031 47.2088V48.3647" fill="#F19920"/>
<path d="M32.1133 48.3647V47.2088C32.1133 46.9776 31.9592 46.8235 31.728 46.8235C31.4968 46.8235 31.3427 46.9776 31.3427 47.2088V48.3647" fill="#F19920"/>
<path d="M34.4251 48.3647V47.2088C34.4251 46.9776 34.271 46.8235 34.0398 46.8235C33.8087 46.8235 33.6546 46.9776 33.6546 47.2088V48.3647" fill="#F19920"/>
<path d="M39.8192 46.0529H22.8663C22.4039 46.0529 22.0957 45.7447 22.0957 45.2824V43.7412C22.0957 43.2788 22.404 42.9706 22.8663 42.9706H39.8192C40.2816 42.9706 40.5898 43.2789 40.5898 43.7412V45.2824C40.5898 45.7447 40.2816 46.0529 39.8192 46.0529Z" fill="#F6B545"/>
<path d="M36.7369 43.7412H22.0957C22.0957 43.2788 22.404 42.9706 22.8663 42.9706H36.7369V43.7412Z" fill="#FFCB5B"/>
<path d="M36.7369 43.7412V44.5117C36.7369 44.9741 36.4286 45.2823 35.9663 45.2823H22.0957C22.0957 45.7446 22.404 46.0528 22.8663 46.0528H35.9663H39.8192C40.2816 46.0528 40.5898 45.7446 40.5898 45.2823V43.7411H36.7369V43.7412Z" fill="#F19920"/>
<path d="M24.4075 45.2824V44.1264C24.4075 43.8953 24.2534 43.7412 24.0222 43.7412C23.791 43.7412 23.6369 43.8953 23.6369 44.1264V45.2824" fill="#F19920"/>
<path d="M26.7192 45.2824V44.1264C26.7192 43.8953 26.5651 43.7412 26.334 43.7412C26.1028 43.7412 25.9487 43.8953 25.9487 44.1264V45.2824" fill="#F19920"/>
<path d="M29.031 45.2824V44.1264C29.031 43.8953 28.8769 43.7412 28.6457 43.7412C28.4145 43.7412 28.2604 43.8953 28.2604 44.1264V45.2824" fill="#F19920"/>
<path d="M31.3427 45.2824V44.1264C31.3427 43.8953 31.1886 43.7412 30.9575 43.7412C30.7263 43.7412 30.5722 43.8953 30.5722 44.1264V45.2824" fill="#F19920"/>
<path d="M33.6545 45.2824V44.1264C33.6545 43.8953 33.5004 43.7412 33.2692 43.7412C33.038 43.7412 32.8839 43.8953 32.8839 44.1264V45.2824" fill="#F19920"/>
<path d="M35.9663 45.2824V44.1264C35.9663 43.8953 35.8122 43.7412 35.581 43.7412C35.3498 43.7412 35.1957 43.8953 35.1957 44.1264V45.2824" fill="#F19920"/>
<path d="M41.3604 39.8882H24.4075C23.9451 39.8882 23.6369 39.5799 23.6369 39.1176V37.5765C23.6369 37.1141 23.9452 36.8059 24.4075 36.8059H41.3604C41.8228 36.8059 42.131 37.1142 42.131 37.5765V39.1176C42.131 39.58 41.8228 39.8882 41.3604 39.8882Z" fill="#F6B545"/>
<path d="M38.278 37.5765H23.6368C23.6368 37.1141 23.9451 36.8059 24.4074 36.8059H38.278V37.5765Z" fill="#FFCB5B"/>
<path d="M38.278 37.5765V38.347C38.278 38.8094 37.9698 39.1176 37.5075 39.1176H23.6368C23.6368 39.58 23.9451 39.8882 24.4074 39.8882H37.5075H41.3604C41.8228 39.8882 42.131 39.5799 42.131 39.1176V37.5764H38.278V37.5765Z" fill="#F19920"/>
<path d="M25.9487 39.1177V37.9617C25.9487 37.7306 25.7946 37.5765 25.5634 37.5765C25.3322 37.5765 25.1781 37.7306 25.1781 37.9617V39.1177" fill="#F19920"/>
<path d="M28.2604 39.1177V37.9617C28.2604 37.7306 28.1063 37.5765 27.8751 37.5765C27.644 37.5765 27.4899 37.7306 27.4899 37.9617V39.1177" fill="#F19920"/>
<path d="M30.5722 39.1177V37.9617C30.5722 37.7306 30.4181 37.5765 30.1869 37.5765C29.9557 37.5765 29.8016 37.7306 29.8016 37.9617V39.1177" fill="#F19920"/>
<path d="M32.8839 39.1177V37.9617C32.8839 37.7306 32.7298 37.5765 32.4987 37.5765C32.2675 37.5765 32.1134 37.7306 32.1134 37.9617V39.1177" fill="#F19920"/>
<path d="M35.1957 39.1177V37.9617C35.1957 37.7306 35.0416 37.5765 34.8104 37.5765C34.5792 37.5765 34.4251 37.7306 34.4251 37.9617V39.1177" fill="#F19920"/>
<path d="M37.5074 39.1177V37.9617C37.5074 37.7306 37.3533 37.5765 37.1222 37.5765C36.891 37.5765 36.7369 37.7306 36.7369 37.9617V39.1177" fill="#F19920"/>
<path d="M39.8192 36.8059H22.8663C22.4039 36.8059 22.0957 36.4976 22.0957 36.0353V34.4941C22.0957 34.0318 22.404 33.7236 22.8663 33.7236H39.8192C40.2816 33.7236 40.5898 34.0318 40.5898 34.4941V36.0353C40.5898 36.4976 40.2816 36.8059 39.8192 36.8059Z" fill="#F6B545"/>
<path d="M36.7369 34.4941H22.0957C22.0957 34.0318 22.404 33.7236 22.8663 33.7236H36.7369V34.4941Z" fill="#FFCB5B"/>
<path d="M36.7369 34.4941V35.2647C36.7369 35.7271 36.4286 36.0353 35.9663 36.0353H22.0957C22.0957 36.4976 22.404 36.8058 22.8663 36.8058H35.9663H39.8192C40.2816 36.8058 40.5898 36.4976 40.5898 36.0353V34.4941H36.7369V34.4941Z" fill="#F19920"/>
<path d="M24.4075 36.0353V34.8794C24.4075 34.6482 24.2534 34.4941 24.0222 34.4941C23.791 34.4941 23.6369 34.6482 23.6369 34.8794V36.0353" fill="#F19920"/>
<path d="M26.7192 36.0353V34.8794C26.7192 34.6482 26.5651 34.4941 26.334 34.4941C26.1028 34.4941 25.9487 34.6482 25.9487 34.8794V36.0353" fill="#F19920"/>
<path d="M29.031 36.0353V34.8794C29.031 34.6482 28.8769 34.4941 28.6457 34.4941C28.4145 34.4941 28.2604 34.6482 28.2604 34.8794V36.0353" fill="#F19920"/>
<path d="M31.3427 36.0353V34.8794C31.3427 34.6482 31.1886 34.4941 30.9575 34.4941C30.7263 34.4941 30.5722 34.6482 30.5722 34.8794V36.0353" fill="#F19920"/>
<path d="M33.6545 36.0353V34.8794C33.6545 34.6482 33.5004 34.4941 33.2692 34.4941C33.038 34.4941 32.8839 34.6482 32.8839 34.8794V36.0353" fill="#F19920"/>
<path d="M35.9663 36.0353V34.8794C35.9663 34.6482 35.8122 34.4941 35.581 34.4941C35.3498 34.4941 35.1957 34.6482 35.1957 34.8794V36.0353" fill="#F19920"/>
<path d="M38.278 42.9706H21.3251C20.8628 42.9706 20.5545 42.6623 20.5545 42.2V40.6588C20.5545 40.1964 20.8628 39.8882 21.3251 39.8882H38.278C38.7404 39.8882 39.0486 40.1965 39.0486 40.6588V42.2C39.0486 42.6623 38.7404 42.9706 38.278 42.9706Z" fill="#F6B545"/>
<path d="M35.1957 40.6588H20.5545C20.5545 40.1965 20.8628 39.8883 21.3251 39.8883H35.1957V40.6588Z" fill="#FFCB5B"/>
<path d="M35.1957 40.6588V41.4294C35.1957 41.8918 34.8874 42.2 34.4251 42.2H20.5545C20.5545 42.6623 20.8628 42.9705 21.3251 42.9705H34.4251H38.278C38.7404 42.9705 39.0486 42.6623 39.0486 42.2V40.6588H35.1957V40.6588Z" fill="#F19920"/>
<path d="M22.8663 42.2V41.0441C22.8663 40.8129 22.7122 40.6588 22.481 40.6588C22.2498 40.6588 22.0957 40.8129 22.0957 41.0441V42.2" fill="#F19920"/>
<path d="M25.178 42.2V41.0441C25.178 40.8129 25.0239 40.6588 24.7927 40.6588C24.5616 40.6588 24.4075 40.8129 24.4075 41.0441V42.2" fill="#F19920"/>
<path d="M27.4898 42.2V41.0441C27.4898 40.8129 27.3357 40.6588 27.1045 40.6588C26.8733 40.6588 26.7192 40.8129 26.7192 41.0441V42.2" fill="#F19920"/>
<path d="M29.8015 42.2V41.0441C29.8015 40.8129 29.6474 40.6588 29.4163 40.6588C29.1851 40.6588 29.031 40.8129 29.031 41.0441V42.2" fill="#F19920"/>
<path d="M32.1133 42.2V41.0441C32.1133 40.8129 31.9592 40.6588 31.728 40.6588C31.4968 40.6588 31.3427 40.8129 31.3427 41.0441V42.2" fill="#F19920"/>
<path d="M34.4251 42.2V41.0441C34.4251 40.8129 34.271 40.6588 34.0398 40.6588C33.8087 40.6588 33.6546 40.8129 33.6546 41.0441V42.2" fill="#F19920"/>
<path d="M52.9192 44.1265C51.9174 43.4329 51.378 42.2771 51.378 41.0441C51.378 36.3435 49.5286 31.8741 46.215 28.5606L42.9015 25.2471V22.9353L45.5986 19.5448C45.8298 19.2365 45.9839 18.8512 45.9839 18.4659C45.9839 17.5411 45.2133 16.7706 44.2886 16.7706H41.3604L40.5898 18.3118L39.0486 16.7706H35.3498C34.4251 16.7706 33.6545 17.5411 33.6545 18.4659C33.6545 18.8511 33.8086 19.2364 34.0398 19.5447L36.7368 22.9353V25.247L33.4233 28.5605C30.1098 31.8741 28.2603 36.3435 28.2603 41.0441C28.2603 42.277 27.721 43.4329 26.7192 44.1264C25.7173 44.8199 25.178 45.9758 25.178 47.2087C25.178 48.2876 26.0256 49.1352 27.1044 49.1352H52.5338C53.6127 49.1352 54.4603 48.2876 54.4603 47.2087C54.4604 45.9759 53.921 44.82 52.9192 44.1265Z" fill="#C97629"/>
<path d="M52.9192 44.1264C51.9175 43.3559 51.378 42.2 51.378 40.967C51.4551 36.1123 49.2204 31.5658 45.8298 28.0982L42.9015 25.247V22.9353L45.5986 19.5447C46.0609 19.0053 46.138 18.2347 45.7527 17.5411C45.4444 17.0018 44.828 16.7706 44.2115 16.7706C43.6721 16.7706 43.3638 17.387 43.5179 17.8494C43.595 18.0035 43.672 18.2347 43.672 18.4659C43.672 18.8511 43.5179 19.2364 43.2868 19.5447L40.5897 22.9353V25.247H36.7368L35.9662 26.0176H41.3604L44.2116 28.8688C47.371 32.0282 48.6039 36.3435 48.2957 40.7358C48.2186 42.0459 48.7581 43.2788 49.7598 44.0494C49.8369 44.1264 49.9139 44.2035 49.991 44.2035C51.1469 45.4364 50.1451 47.517 48.3728 47.517H25.2551C25.4092 48.3646 26.1799 49.0581 27.1045 49.0581H49.4516H51.3781H52.534C53.6128 49.0582 54.4604 48.2106 54.4604 47.1317V46.9776C54.4604 45.8217 53.8439 44.82 52.9192 44.1264Z" fill="#B06328"/>
<path d="M43.2869 25.247H36.3515C35.7351 25.247 35.1956 24.7077 35.1956 24.0911C35.1956 23.4747 35.735 22.9352 36.3515 22.9352H43.2868C43.9033 22.9352 44.4427 23.4746 44.4427 24.0911C44.4427 24.7077 43.9033 25.247 43.2869 25.247Z" fill="#FFCB5B"/>
<path d="M36.3515 22.9353H40.2045C40.4357 22.9353 40.5898 23.0894 40.5898 23.3206C40.5898 23.5517 40.4357 23.7058 40.2045 23.7058H36.3515C36.1203 23.7058 35.9662 23.5517 35.9662 23.3206C35.9662 23.0894 36.1204 22.9353 36.3515 22.9353Z" fill="#FFE278"/>
<path d="M43.2869 22.9353H42.9016V23.7058C42.9016 24.1682 42.5933 24.4764 42.131 24.4764H35.2728C35.4269 24.9388 35.8892 25.247 36.3516 25.247H43.2869C43.9033 25.247 44.4428 24.7076 44.4428 24.0911C44.4428 23.4745 43.9033 22.9353 43.2869 22.9353Z" fill="#F6B545"/>
<path d="M40.9751 24.4765H43.2869C43.5181 24.4765 43.6722 24.6306 43.6722 24.8618C43.6722 25.0929 43.5181 25.247 43.2869 25.247H40.9751C40.7439 25.247 40.5898 25.0929 40.5898 24.8618C40.5898 24.6306 40.7439 24.4765 40.9751 24.4765Z" fill="#F19920"/>
<path d="M40.5898 25.247H39.0486V31.4118H40.5898V25.247Z" fill="#F6B545"/>
<path d="M39.0486 25.247V26.0177H39.8192V31.4118H40.5898V26.0177V25.247H39.0486Z" fill="#F19920"/>
<path d="M39.8192 42.9706C43.2239 42.9706 45.9839 40.2106 45.9839 36.8059C45.9839 33.4012 43.2239 30.6412 39.8192 30.6412C36.4145 30.6412 33.6545 33.4012 33.6545 36.8059C33.6545 40.2106 36.4145 42.9706 39.8192 42.9706Z" fill="#F6B545"/>
<path d="M44.5198 32.8759C45.4445 33.9547 45.9839 35.2647 45.9839 36.8059C45.9839 40.1965 43.2098 42.9706 39.8192 42.9706C38.278 42.9706 36.968 42.4312 35.8892 41.5065C37.0451 42.8935 38.7404 43.7412 40.5898 43.7412C43.9804 43.7412 46.7545 40.967 46.7545 37.5765C46.7545 35.65 45.9068 33.9547 44.5198 32.8759Z" fill="#B06328"/>
<path d="M39.8192 42.2C42.7983 42.2 45.2134 39.785 45.2134 36.8059C45.2134 33.8268 42.7983 31.4117 39.8192 31.4117C36.8401 31.4117 34.4251 33.8268 34.4251 36.8059C34.4251 39.785 36.8401 42.2 39.8192 42.2Z" fill="#FFCB5B"/>
<path d="M45.2134 36.8059C45.2134 39.8112 42.8245 42.2 39.8192 42.2V42.9706C43.2098 42.9706 45.9839 40.1965 45.9839 36.8059H45.2134Z" fill="#F19920"/>
<path d="M39.8192 31.4118V30.6412C36.4286 30.6412 33.6545 33.4153 33.6545 36.8059H34.4251C34.4251 33.8006 36.8139 31.4118 39.8192 31.4118Z" fill="#FFE27A"/>
<path d="M40.5898 36.0353H39.0486C38.5862 36.0353 38.278 35.727 38.278 35.2647C38.278 34.8023 38.5863 34.4941 39.0486 34.4941H41.3603C41.8227 34.4941 42.1309 34.1859 42.1309 33.7236C42.1309 33.2612 41.8226 32.953 41.3603 32.953H40.5898C40.5898 32.4906 40.2815 32.1824 39.8192 32.1824C39.3568 32.1824 39.0486 32.4907 39.0486 32.953C37.7386 32.953 36.7369 33.9547 36.7369 35.2648C36.7369 36.5748 37.7386 37.5765 39.0486 37.5765H40.5898C41.0522 37.5765 41.3604 37.8848 41.3604 38.3471C41.3604 38.8094 41.0521 39.1176 40.5898 39.1176H38.2781C37.8157 39.1176 37.5075 39.4259 37.5075 39.8882C37.5075 40.3506 37.8158 40.6588 38.2781 40.6588H39.0486C39.0486 41.1211 39.3569 41.4293 39.8192 41.4293C40.2816 41.4293 40.5898 41.1211 40.5898 40.6588C41.8998 40.6588 42.9015 39.657 42.9015 38.347C42.9015 37.037 41.8998 36.0353 40.5898 36.0353Z" fill="#E78825"/>
</g>
<defs>
<filter id="filter0_d" x="0" y="0" width="83.0149" height="86.9852" filterUnits="userSpaceOnUse" color-interpolation-filters="sRGB">
<feFlood flood-opacity="0" result="BackgroundImageFix"/>
<feColorMatrix in="SourceAlpha" type="matrix" values="0 0 0 0 0 0 0 0 0 0 0 0 0 0 0 0 0 0 127 0" result="hardAlpha"/>
<feOffset dx="4" dy="8"/>
<feGaussianBlur stdDeviation="5.5"/>
<feComposite in2="hardAlpha" operator="out"/>
<feColorMatrix type="matrix" values="0 0 0 0 0.8625 0 0 0 0 0.733125 0 0 0 0 0.733125 0 0 0 0.25 0"/>
<feBlend mode="normal" in2="BackgroundImageFix" result="effect1_dropShadow"/>
<feBlend mode="normal" in="SourceGraphic" in2="effect1_dropShadow" result="shape"/>
</filter>
<clipPath id="clip0">
<rect width="33.9059" height="33.9059" fill="white" transform="translate(20.5545 16)"/>
</clipPath>
</defs>
</svg>
