<svg width="59" height="41" viewBox="0 0 59 41" fill="none" xmlns="http://www.w3.org/2000/svg">
<path d="M14.5438 1.74391C12.1182 0.2512 11.6673 2.21038 11.745 3.37656L11.745 15.5048L22.4739 7.57481L14.5438 1.74391Z" fill="#E63946"/>
<path d="M7.77994 3.84302L1.71586 8.2745C-0.383217 9.90715 0.549729 12.4727 2.88206 12.2395H7.54671L7.77994 3.84302Z" fill="#4C39C3"/>
<path d="M44.8646 37.8954L56.2931 29.9654C59.5584 27.8663 59.3252 25.0897 54.194 25.3229H45.3158L44.8646 37.8954Z" fill="#1D3557"/>
<path d="M38.3339 1.27749L12.2115 19.7031C10.438 20.954 11.4725 22.0902 12.2115 22.5019L37.1677 40.4611C40.3397 41.9538 41.1327 39.9946 41.1327 38.8284V2.44367C40.9461 0.0180222 39.1891 0.655533 38.3339 1.27749Z" fill="#4C39C3"/>
</svg>
